<svg id="Layer_1" height="48" viewBox="0 0 128 128" width="48" xmlns="http://www.w3.org/2000/svg" data-name="Layer 1"><path d="m48.57 20.145-14.9 3.2a12 12 0 0 0 -9.481 11.733v58.922a12 12 0 0 0 12 12h55.619a12 12 0 0 0 12-12v-58.923a12 12 0 0 0 -9.481-11.733l-14.9-3.2a73.494 73.494 0 0 0 -30.857.001z" fill="#d64c55"/><g fill="#e7ecf1"><path d="m33.19 36.197h61.62v26.05h-61.62z"/><circle cx="84.876" cy="83.25" r="8"/><circle cx="43.124" cy="83.25" r="8"/><path d="m74 29.257h-20a1.75 1.75 0 0 1 0-3.5h20a1.75 1.75 0 0 1 0 3.5z"/></g><path d="m94.694 21.634-14.9-3.2c-1.5-.323-3.008-.586-4.516-.817l1.686-9.367h12.036a1.75 1.75 0 0 0 0-3.5h-50a1.75 1.75 0 0 0 0 3.5h12.036l1.683 9.368c-1.508.23-3.014.494-4.516.817l-14.9 3.2a13.821 13.821 0 0 0 -10.861 13.442v58.923a13.758 13.758 0 0 0 11.668 13.571l-5.4 13.269a1.75 1.75 0 0 0 3.242 1.32l2.61-6.41h58.878l2.61 6.411a1.75 1.75 0 0 0 3.24-1.322l-5.4-13.268a13.759 13.759 0 0 0 11.668-13.571v-15.5a1.75 1.75 0 0 0 -3.5 0v15.5a10.261 10.261 0 0 1 -10.25 10.25h-55.616a10.261 10.261 0 0 1 -10.25-10.25v-58.923a10.3 10.3 0 0 1 8.1-10.021l14.9-3.2a71.286 71.286 0 0 1 30.125 0l14.9 3.2a10.3 10.3 0 0 1 8.1 10.021v23.3a1.75 1.75 0 0 0 3.5 0v-23.3a13.821 13.821 0 0 0 -10.873-13.443zm-58.709 90.616 1.834-4.5h52.363l1.833 4.5zm20.208-95.091-1.6-8.909h18.814l-1.6 8.91a74.353 74.353 0 0 0 -15.614-.001z"/><path d="m103.808 65a1.749 1.749 0 0 0 -1.75 1.75v4.5a1.75 1.75 0 0 0 3.5 0v-4.5a1.75 1.75 0 0 0 -1.75-1.75z"/><path d="m96.56 62.247v-26.047a1.75 1.75 0 0 0 -1.75-1.75h-41.684a1.75 1.75 0 0 0 0 3.5h39.934v22.55h-58.12v-22.553h8.893a1.75 1.75 0 0 0 0-3.5h-10.643a1.75 1.75 0 0 0 -1.75 1.75v26.05a1.75 1.75 0 0 0 1.75 1.753h61.62a1.75 1.75 0 0 0 1.75-1.753z"/><path d="m75.126 83.25a9.75 9.75 0 1 0 9.75-9.75 9.761 9.761 0 0 0 -9.75 9.75zm16 0a6.25 6.25 0 1 1 -6.25-6.25 6.257 6.257 0 0 1 6.25 6.25z"/><path d="m33.374 83.25a9.75 9.75 0 1 0 9.75-9.75 9.761 9.761 0 0 0 -9.75 9.75zm16 0a6.25 6.25 0 1 1 -6.25-6.25 6.257 6.257 0 0 1 6.25 6.25z"/><path d="m74 29.257a1.75 1.75 0 0 0 0-3.5h-20a1.75 1.75 0 0 0 0 3.5z"/></svg>